<?xml version="1.0" encoding="utf-8"?>
<!-- Generator: Adobe Illustrator 18.0.0, SVG Export Plug-In . SVG Version: 6.00 Build 0)  -->
<!DOCTYPE svg PUBLIC "-//W3C//DTD SVG 1.1//EN" "http://www.w3.org/Graphics/SVG/1.1/DTD/svg11.dtd">
<svg version="1.1" id="Layer_2" xmlns="http://www.w3.org/2000/svg" xmlns:xlink="http://www.w3.org/1999/xlink" x="0px" y="0px"
	 width="20px" height="32.2px" viewBox="0 0 20 32.2" enable-background="new 0 0 20 32.2" xml:space="preserve">
<g>
	<path fill="#3B3F41" d="M10,32.2c-5.5,0-10-4.5-10-10V10C0,4.5,4.5,0,10,0s10,4.5,10,10v12.2C20,27.7,15.5,32.2,10,32.2z M10,1.8
		c-4.5,0-8.1,3.6-8.1,8.1v12.3c0,4.5,3.6,8.1,8.1,8.1l0,0c4.5,0,8.1-3.6,8.1-8.1V10C18.1,5.5,14.5,1.8,10,1.8z"/>
</g>
<g>
	<path fill="#3B3F41" d="M10,14L10,14c-1,0-1.8-0.8-1.8-1.8V9.8C8.2,8.8,9,8,10,8l0,0c1,0,1.8,0.8,1.8,1.8v2.4
		C11.8,13.2,11,14,10,14z"/>
</g>
</svg>
