<?xml version="1.0" encoding="utf-8"?>
<!-- Generator: Adobe Illustrator 25.0.1, SVG Export Plug-In . SVG Version: 6.00 Build 0)  -->
<svg version="1.1" xmlns="http://www.w3.org/2000/svg" xmlns:xlink="http://www.w3.org/1999/xlink" x="0px" y="0px"
	 viewBox="0 0 112 56" style="enable-background:new 0 0 112 56;" xml:space="preserve">
<style type="text/css">
	.st0{display:none;}
	.st1{display:inline;}
	.st2{fill:url(#SVGID_1_);}
	.st3{fill:url(#SVGID_2_);}
	.st4{fill:url(#SVGID_3_);}
	.st5{fill:url(#SVGID_4_);}
	.st6{fill-rule:evenodd;clip-rule:evenodd;fill:url(#SVGID_5_);}
	.st7{fill:#193153;}
	.st8{fill:url(#SVGID_6_);}
	.st9{fill:url(#SVGID_7_);}
	.st10{fill:url(#SVGID_8_);}
	.st11{fill:url(#SVGID_9_);}
	.st12{fill-rule:evenodd;clip-rule:evenodd;fill:url(#SVGID_10_);}
	.st13{fill:#FFFFFF;}
</style>
<g id="color" class="st0">
	<g class="st1">
		
			<linearGradient id="SVGID_1_" gradientUnits="userSpaceOnUse" x1="3.7805" y1="21.7221" x2="39.0634" y2="9.8415" gradientTransform="matrix(1 0 0 -1 0 55.8898)">
			<stop  offset="0.1311" style="stop-color:#FFFFFF"/>
			<stop  offset="0.7277" style="stop-color:#193153"/>
		</linearGradient>
		<path class="st2" d="M17.7,47.5c9.2,3,19.1-1.1,23.9-9.3l-27.9,0c-0.3,0-4-0.4-6.9-2.8c-1-0.8-1.8-1.9-2.4-3l-0.1-0.2
			C5.8,39.2,10.6,45.2,17.7,47.5z"/>
		
			<linearGradient id="SVGID_2_" gradientUnits="userSpaceOnUse" x1="20.8911" y1="6.2473" x2="45.8213" y2="33.5909" gradientTransform="matrix(1 0 0 -1 0 55.8898)">
			<stop  offset="0.1311" style="stop-color:#FFFFFF"/>
			<stop  offset="0.7277" style="stop-color:#193153"/>
		</linearGradient>
		<path class="st3" d="M38.7,42.3c6.6-7,6.8-17.8,1.1-25.6L28.4,42c-0.2,0.3-2,3.5-5.4,5.1c-1.2,0.6-2.5,0.8-3.8,0.9l-0.3,0
			C26,49.7,33.6,47.8,38.7,42.3z"/>
		
			<linearGradient id="SVGID_3_" gradientUnits="userSpaceOnUse" x1="43.5315" y1="19.8075" x2="21.9514" y2="50.6017" gradientTransform="matrix(1 0 0 -1 0 55.8898)">
			<stop  offset="0.1311" style="stop-color:#FFFFFF"/>
			<stop  offset="0.7277" style="stop-color:#193153"/>
		</linearGradient>
		<path class="st4" d="M40.3,16.7c-5.7-8-16.3-10.3-25.2-6.5l23,16.3c0.3,0.2,3.1,2.7,4,6.3c0.3,1.3,0.4,2.6,0.1,3.9l-0.1,0.3
			C45.2,30.6,44.7,22.9,40.3,16.7z"/>
		
			<linearGradient id="SVGID_4_" gradientUnits="userSpaceOnUse" x1="37.578" y1="43.7662" x2="2.1426" y2="34.1597" gradientTransform="matrix(1 0 0 -1 0 55.8898)">
			<stop  offset="0.1311" style="stop-color:#FFFFFF"/>
			<stop  offset="0.7277" style="stop-color:#193153"/>
		</linearGradient>
		<path class="st5" d="M18.8,8.8C9.6,11.3,3.7,20.1,4.3,29.5l22.9-15.1c0.3-0.2,3.5-1.9,7.2-1.4c1.3,0.2,2.5,0.6,3.6,1.2l0.2,0.1
			C33.2,9.3,25.9,7,18.8,8.8z"/>
		
			<linearGradient id="SVGID_5_" gradientUnits="userSpaceOnUse" x1="10.6833" y1="45.199" x2="10.1925" y2="6.9172" gradientTransform="matrix(1 0 0 -1 0 55.8898)">
			<stop  offset="0.1311" style="stop-color:#FFFFFF"/>
			<stop  offset="0.7277" style="stop-color:#193153"/>
		</linearGradient>
		<path class="st6" d="M4.2,31.8C4,30.9,3.8,30,3.8,28.9C3.9,21,6.9,14.3,14.2,10.7L14,10.9c-0.8,0.8-1.3,2-1.7,3.2
			c-0.1,0.2-0.1,0.3-0.2,0.5c-1.4,3.6-0.6,7.4-0.6,7.8L17,38.2c-1.2,0.3-5.3,0.4-8.6-1.4c-0.9-0.6-1.9-1.5-2.7-2.5
			C5,33.5,4.6,32.7,4.2,31.8z"/>
		<path class="st7" d="M78.2,48.6c0,2.5-1.4,3.2-3.8,3.2c-0.7,0-1.9-0.2-2.5-0.4l0.3-0.8c0.5,0.2,1.6,0.4,2.2,0.4
			c1.8,0,2.8-0.5,2.8-2.3c-0.4,0.3-1,0.6-2.1,0.6c-2.4,0-3.5-0.8-3.5-3.6c0-2.8,1.1-3.6,3.5-3.6c0.9,0,2.3,0.2,3.1,0.5L78.2,48.6
			L78.2,48.6z M72.6,45.7c0,2.2,0.6,2.8,2.4,2.8c1.2,0,2.1-0.3,2.1-1v-4.3C76.6,43.1,75.8,43,75,43C73.2,43,72.6,43.4,72.6,45.7z
			 M84.9,42.2v0.9c-0.2,0-0.5-0.1-0.8-0.1c-1.2,0-2.2,0.3-2.2,0.9v5.2h-1v-6.8h1v0.5c0.3-0.3,1.1-0.7,2.2-0.7
			C84.3,42.2,84.6,42.2,84.9,42.2z M86.3,45.7c0-2.8,1.1-3.6,3.5-3.6c2.4,0,3.5,0.8,3.5,3.6c0,2.8-1.1,3.6-3.5,3.6
			C87.4,49.3,86.3,48.5,86.3,45.7z M87.4,45.7c0,2.2,0.6,2.8,2.4,2.8c1.8,0,2.4-0.6,2.4-2.8c0-2.3-0.6-2.8-2.4-2.8
			C88,43,87.4,43.4,87.4,45.7z M101,42.3h1v6.5c-0.9,0.3-2.2,0.5-3.1,0.5c-2.2,0-3.1-0.7-3.1-3.2v-3.8h1V46c0,2.1,0.5,2.5,2.2,2.5
			c0.7,0,1.4-0.1,2-0.2V42.3z M107.9,49.3c-1.1,0-1.7-0.3-2.1-0.6v3h-1v-9c0.8-0.3,2.2-0.5,3.1-0.5c2.4,0,3.5,0.8,3.5,3.6
			C111.4,48.5,110.3,49.3,107.9,49.3z M107.9,43c-0.8,0-1.5,0.1-2.1,0.3v4.3c0,0.6,1,1,2.1,1c1.8,0,2.4-0.6,2.4-2.8
			C110.3,43.4,109.7,43,107.9,43z M52.8,15.2v18.6c0,2.1,0.5,3.6,1.6,4.9l3-1.3c-0.8-1.1-1.1-2.2-1.1-3.8V15.2H52.8z M61.6,44.1h3.9
			c0.8-1.4,1.7-3.4,2.5-5.3c2.6-6,4.7-11.6,6.3-16.7h-3.5c-0.9,3.5-2.2,7.4-4.1,12.3l-0.3,0.9L66,34.3c-1.2-4.4-2.7-8.8-4.1-12.3
			h-3.6c2,4.7,4.1,11,5.8,16.9l0,0.1l0,0.1C63.6,40.3,62.6,42.4,61.6,44.1z M86.9,37.9h3.5V29c0-5.5-1.7-7.5-6.5-7.5
			c-2.4,0-5.5,0.5-7.7,1.3v15h3.5V25l0.2-0.1c1-0.3,2-0.4,3.1-0.4c3.1,0,3.9,1,3.9,4.9L86.9,37.9L86.9,37.9z M104.2,37.9h3.9
			c-1.6-2.4-3.6-5.2-5.5-7.9l-0.1-0.2l0.1-0.2c1.9-2.6,3.9-5.4,5.5-7.6h-3.8l-0.1,0.1c-0.9,1.3-2,3-3.3,4.8l-0.3,0.3l-0.3-0.3
			c-1.3-1.8-2.7-3.6-3.8-4.9h-4.1c1.7,2,3.9,4.8,6.1,7.8l0.1,0.2l-0.1,0.2c-2.4,3.1-4.5,5.9-6.1,7.7h3.7c1.3-1.5,2.7-3.3,4-5.1
			l0.3-0.3l0.2,0.3C102.3,35,103.4,36.6,104.2,37.9z"/>
	</g>
</g>
<g id="white">
	<g>
		
			<linearGradient id="SVGID_6_" gradientUnits="userSpaceOnUse" x1="3.7805" y1="21.7221" x2="39.0634" y2="9.8415" gradientTransform="matrix(1 0 0 -1 0 55.8898)">
			<stop  offset="0" style="stop-color:#FFFFFF"/>
			<stop  offset="0.5781" style="stop-color:#C4C4C4"/>
			<stop  offset="1" style="stop-color:#000000"/>
		</linearGradient>
		<path class="st8" d="M17.7,47.5c9.2,3,19.1-1.1,23.9-9.3l-27.9,0c-0.3,0-4-0.4-6.9-2.8c-1-0.8-1.8-1.9-2.4-3l-0.1-0.2
			C5.8,39.2,10.6,45.2,17.7,47.5z"/>
		
			<linearGradient id="SVGID_7_" gradientUnits="userSpaceOnUse" x1="20.8911" y1="6.2473" x2="45.8213" y2="33.5909" gradientTransform="matrix(1 0 0 -1 0 55.8898)">
			<stop  offset="0" style="stop-color:#FFFFFF"/>
			<stop  offset="0.5781" style="stop-color:#C4C4C4"/>
			<stop  offset="1" style="stop-color:#000000"/>
		</linearGradient>
		<path class="st9" d="M38.7,42.3c6.6-7,6.8-17.8,1.1-25.6L28.4,42c-0.2,0.3-2,3.5-5.4,5.1c-1.2,0.6-2.5,0.8-3.8,0.9l-0.3,0
			C26,49.7,33.6,47.8,38.7,42.3z"/>
		
			<linearGradient id="SVGID_8_" gradientUnits="userSpaceOnUse" x1="43.5315" y1="19.8075" x2="21.9514" y2="50.6017" gradientTransform="matrix(1 0 0 -1 0 55.8898)">
			<stop  offset="0" style="stop-color:#FFFFFF"/>
			<stop  offset="0.5781" style="stop-color:#C4C4C4"/>
			<stop  offset="1" style="stop-color:#000000"/>
		</linearGradient>
		<path class="st10" d="M40.3,16.7c-5.7-8-16.3-10.3-25.2-6.5l23,16.3c0.3,0.2,3.1,2.7,4,6.3c0.3,1.3,0.4,2.6,0.1,3.9l-0.1,0.3
			C45.2,30.6,44.7,22.9,40.3,16.7z"/>
		
			<linearGradient id="SVGID_9_" gradientUnits="userSpaceOnUse" x1="37.578" y1="43.7662" x2="2.1426" y2="34.1597" gradientTransform="matrix(1 0 0 -1 0 55.8898)">
			<stop  offset="0" style="stop-color:#FFFFFF"/>
			<stop  offset="0.5781" style="stop-color:#C4C4C4"/>
			<stop  offset="1" style="stop-color:#000000"/>
		</linearGradient>
		<path class="st11" d="M18.8,8.8C9.6,11.3,3.7,20.1,4.3,29.5l22.9-15.1c0.3-0.2,3.5-1.9,7.2-1.4c1.3,0.2,2.5,0.6,3.6,1.2l0.2,0.1
			C33.2,9.3,25.9,7,18.8,8.8z"/>
		
			<linearGradient id="SVGID_10_" gradientUnits="userSpaceOnUse" x1="10.6833" y1="45.199" x2="10.1925" y2="6.9172" gradientTransform="matrix(1 0 0 -1 0 55.8898)">
			<stop  offset="0" style="stop-color:#FFFFFF"/>
			<stop  offset="0.5781" style="stop-color:#C4C4C4"/>
			<stop  offset="1" style="stop-color:#000000"/>
		</linearGradient>
		<path class="st12" d="M4.2,31.8C4,30.9,3.8,30,3.8,28.9C3.9,21,6.9,14.3,14.2,10.7L14,10.9c-0.8,0.8-1.3,2-1.7,3.2
			c-0.1,0.2-0.1,0.3-0.2,0.5c-1.4,3.6-0.6,7.4-0.6,7.8L17,38.2c-1.2,0.3-5.3,0.4-8.6-1.4c-0.9-0.6-1.9-1.5-2.7-2.5
			C5,33.5,4.6,32.7,4.2,31.8z"/>
		<path class="st13" d="M78.2,48.6c0,2.5-1.4,3.2-3.8,3.2c-0.7,0-1.9-0.2-2.5-0.4l0.3-0.8c0.5,0.2,1.6,0.4,2.2,0.4
			c1.8,0,2.8-0.5,2.8-2.3c-0.4,0.3-1,0.6-2.1,0.6c-2.4,0-3.5-0.8-3.5-3.6c0-2.8,1.1-3.6,3.5-3.6c0.9,0,2.3,0.2,3.1,0.5L78.2,48.6
			L78.2,48.6z M72.6,45.7c0,2.2,0.6,2.8,2.4,2.8c1.2,0,2.1-0.3,2.1-1v-4.3C76.6,43.1,75.8,43,75,43C73.2,43,72.6,43.4,72.6,45.7z
			 M84.9,42.2v0.9c-0.2,0-0.5-0.1-0.8-0.1c-1.2,0-2.2,0.3-2.2,0.9v5.2h-1v-6.8h1v0.5c0.3-0.3,1.1-0.7,2.2-0.7
			C84.3,42.2,84.6,42.2,84.9,42.2z M86.3,45.7c0-2.8,1.1-3.6,3.5-3.6c2.4,0,3.5,0.8,3.5,3.6c0,2.8-1.1,3.6-3.5,3.6
			C87.4,49.3,86.3,48.5,86.3,45.7z M87.4,45.7c0,2.2,0.6,2.8,2.4,2.8c1.8,0,2.4-0.6,2.4-2.8c0-2.3-0.6-2.8-2.4-2.8
			C88,43,87.4,43.4,87.4,45.7z M101,42.3h1v6.5c-0.9,0.3-2.2,0.5-3.1,0.5c-2.2,0-3.1-0.7-3.1-3.2v-3.8h1V46c0,2.1,0.5,2.5,2.2,2.5
			c0.7,0,1.4-0.1,2-0.2V42.3z M107.9,49.3c-1.1,0-1.7-0.3-2.1-0.6v3h-1v-9c0.8-0.3,2.2-0.5,3.1-0.5c2.4,0,3.5,0.8,3.5,3.6
			C111.4,48.5,110.3,49.3,107.9,49.3z M107.9,43c-0.8,0-1.5,0.1-2.1,0.3v4.3c0,0.6,1,1,2.1,1c1.8,0,2.4-0.6,2.4-2.8
			C110.3,43.4,109.7,43,107.9,43z M52.8,15.2v18.6c0,2.1,0.5,3.6,1.6,4.9l3-1.3c-0.8-1.1-1.1-2.2-1.1-3.8V15.2H52.8z M61.6,44.1h3.9
			c0.8-1.4,1.7-3.4,2.5-5.3c2.6-6,4.7-11.6,6.3-16.7h-3.5c-0.9,3.5-2.2,7.4-4.1,12.3l-0.3,0.9L66,34.3c-1.2-4.4-2.7-8.8-4.1-12.3
			h-3.6c2,4.7,4.1,11,5.8,16.9l0,0.1l0,0.1C63.6,40.3,62.6,42.4,61.6,44.1z M86.9,37.9h3.5V29c0-5.5-1.7-7.5-6.5-7.5
			c-2.4,0-5.5,0.5-7.7,1.3v15h3.5V25l0.2-0.1c1-0.3,2-0.4,3.1-0.4c3.1,0,3.9,1,3.9,4.9L86.9,37.9L86.9,37.9z M104.2,37.9h3.9
			c-1.6-2.4-3.6-5.2-5.5-7.9l-0.1-0.2l0.1-0.2c1.9-2.6,3.9-5.4,5.5-7.6h-3.8l-0.1,0.1c-0.9,1.3-2,3-3.3,4.8l-0.3,0.3l-0.3-0.3
			c-1.3-1.8-2.7-3.6-3.8-4.9h-4.1c1.7,2,3.9,4.8,6.1,7.8l0.1,0.2l-0.1,0.2c-2.4,3.1-4.5,5.9-6.1,7.7h3.7c1.3-1.5,2.7-3.3,4-5.1
			l0.3-0.3l0.2,0.3C102.3,35,103.4,36.6,104.2,37.9z"/>
	</g>
</g>
</svg>
